<svg xmlns="http://www.w3.org/2000/svg" width="1200" height="630" viewBox="0 0 1200 630" role="img" aria-labelledby="title desc">
  <title id="title">SingulFit</title>
  <desc id="desc">Nutrição inteligente pelo WhatsApp</desc>
  <defs>
    <linearGradient id="bg" x1="0" y1="0" x2="1" y2="1">
      <stop offset="0" stop-color="#064e3b"/>
      <stop offset="0.55" stop-color="#047857"/>
      <stop offset="1" stop-color="#f8f7f3"/>
    </linearGradient>
    <radialGradient id="glow" cx="30%" cy="18%" r="70%">
      <stop offset="0" stop-color="#ffffff" stop-opacity="0.34"/>
      <stop offset="1" stop-color="#ffffff" stop-opacity="0"/>
    </radialGradient>
  </defs>
  <rect width="1200" height="630" fill="url(#bg)"/>
  <rect width="1200" height="630" fill="url(#glow)"/>
  <circle cx="920" cy="130" r="220" fill="#ffffff" opacity="0.12"/>
  <circle cx="1010" cy="520" r="280" fill="#022c22" opacity="0.24"/>
  <g transform="translate(100 112)">
    <rect width="150" height="150" rx="42" fill="#f8f7f3"/>
    <path d="M45 82c22-45 77-47 102-6-29-14-55-8-72 28-8-16-18-23-30-22Z" fill="#047857"/>
    <path d="M43 94c20 2 35 11 47 31 17-36 43-54 78-51-31 16-53 40-66 72-11-23-31-40-59-52Z" fill="#064e3b"/>
  </g>
  <text x="100" y="340" fill="#ffffff" font-family="Inter, Arial, sans-serif" font-size="96" font-weight="900" letter-spacing="-5">SingulFit</text>
  <text x="104" y="414" fill="#ecfdf5" font-family="Inter, Arial, sans-serif" font-size="38" font-weight="700">Nutrição inteligente pelo WhatsApp</text>
  <text x="104" y="480" fill="#ffffff" opacity="0.82" font-family="Inter, Arial, sans-serif" font-size="30">Cadastro, PIX e ativação automática para começar sua jornada.</text>
</svg>
